<svg width="216" height="229" viewBox="0 0 216 229" fill="none" xmlns="http://www.w3.org/2000/svg">
<path d="M7.28096 43.422C6.19984 43.0933 5.30522 42.5808 4.59711 41.8847C3.8919 41.179 3.42563 40.3579 3.19829 39.4212C2.97095 38.4846 3.01147 37.5092 3.31985 36.495C3.62822 35.4809 4.13755 34.648 4.84782 33.9965C5.55809 33.3449 6.40111 32.9271 7.37687 32.743C8.35554 32.5493 9.38544 32.6169 10.4666 32.9456C11.5573 33.2773 12.4552 33.7959 13.1604 34.5016C13.8685 35.1977 14.3362 36.0141 14.5636 36.9508C14.7909 37.8874 14.7504 38.8628 14.442 39.877C14.1337 40.8911 13.6243 41.724 12.9141 42.3755C12.2038 43.0271 11.3593 43.4497 10.3806 43.6433C9.40488 43.8274 8.37166 43.7537 7.28096 43.422ZM6.82154 37.5598C6.63535 38.1721 6.67397 38.7326 6.93739 39.2412C7.20372 39.7403 7.63826 40.0815 8.24101 40.2647C8.84376 40.448 9.39467 40.4065 9.89373 40.1402C10.4053 39.8672 10.7541 39.4245 10.9403 38.8122C11.1265 38.1999 11.0817 37.6427 10.8058 37.1408C10.5424 36.6321 10.1093 36.2862 9.50652 36.1029C8.90377 35.9196 8.3514 35.9659 7.84943 36.2418C7.35036 36.5081 7.00773 36.9475 6.82154 37.5598ZM18.9791 46.6086C18.0417 46.2315 17.2825 45.7175 16.7016 45.0667C16.1207 44.4159 15.7558 43.6848 15.607 42.8734C15.4711 42.0561 15.5637 41.2111 15.8851 40.3383C16.203 39.475 16.6834 38.7781 17.3263 38.2475C17.9692 37.717 18.7181 37.3907 19.5729 37.2685C20.4406 37.1404 21.3535 37.2368 22.3117 37.5576L22.7522 36.3612L25.9194 37.5273L25.4788 38.7238C26.4163 39.1009 27.169 39.6178 27.7371 40.2746C28.318 40.9254 28.6811 41.6612 28.8265 42.4819C28.9718 43.3027 28.8856 44.1448 28.5677 45.0081C28.2463 45.8808 27.7642 46.5825 27.1213 47.113C26.4819 47.6341 25.73 47.9541 24.8658 48.0728C24.0109 48.1949 23.1044 48.0956 22.1462 47.7747L21.685 49.0275L18.5178 47.8614L18.9791 46.6086ZM19.207 41.5615C19.0377 42.0213 19.0391 42.4374 19.211 42.8097C19.3923 43.1855 19.706 43.4769 20.152 43.6837L21.3078 40.5447C20.8341 40.413 20.4047 40.436 20.0195 40.6139C19.6472 40.7858 19.3764 41.1017 19.207 41.5615ZM23.1502 44.7877C23.6238 44.9194 24.0468 44.8993 24.4192 44.7274C24.7915 44.5555 25.0623 44.2396 25.2316 43.7798C25.4009 43.3199 25.3996 42.9039 25.2277 42.5315C25.0592 42.1498 24.752 41.8555 24.306 41.6487L23.1502 44.7877ZM33.0115 52.9501C31.9827 52.4826 31.1629 51.8575 30.552 51.0746C29.9452 50.2827 29.5905 49.4075 29.4877 48.4492C29.385 47.4908 29.5529 46.5291 29.9914 45.5641C30.4299 44.599 31.0438 43.84 31.8333 43.2871C32.6228 42.7341 33.5132 42.4303 34.5047 42.3755C35.5003 42.3117 36.5125 42.5135 37.5413 42.9809C38.5791 43.4525 39.4014 44.0843 40.0082 44.8762C40.6191 45.6591 40.9759 46.5297 41.0786 47.488C41.1814 48.4464 41.0135 49.4081 40.575 50.3731C40.1365 51.3382 39.5225 52.0972 38.7331 52.6501C37.9436 53.2031 37.0511 53.5115 36.0555 53.5753C35.064 53.6301 34.0493 53.4217 33.0115 52.9501ZM33.3235 47.0782C33.0587 47.6608 33.0236 48.2215 33.2182 48.7603C33.4169 49.2899 33.803 49.685 34.3766 49.9457C34.9502 50.2063 35.5018 50.2372 36.0314 50.0385C36.5743 49.8349 36.9781 49.4417 37.2429 48.859C37.5076 48.2764 37.5361 47.7182 37.3283 47.1844C37.1337 46.6456 36.7497 46.2459 36.1761 45.9853C35.6025 45.7247 35.0489 45.6983 34.5151 45.9061C33.9855 46.1048 33.5883 46.4955 33.3235 47.0782ZM44.9884 46.7146L49.2494 49.083C50.0448 49.5251 50.6551 50.0531 51.0804 50.6671C51.5144 51.2859 51.7406 51.9493 51.7589 52.6574C51.7859 53.3703 51.6002 54.0852 51.2019 54.8019C50.8035 55.5186 50.2944 56.0537 49.6746 56.4071C49.0685 56.7566 48.3924 56.9128 47.6465 56.8758C46.9006 56.8387 46.1343 56.6015 45.3476 56.1643L44.2332 55.5448L43.0599 57.6557L39.8871 55.8921L44.9884 46.7146ZM46.2792 53.4386C46.655 53.6475 46.9921 53.7204 47.2903 53.6573C47.5933 53.5855 47.8347 53.3879 48.0145 53.0645C48.1942 52.7411 48.2322 52.4361 48.1283 52.1496C48.0293 51.8543 47.7919 51.6022 47.4161 51.3933L46.6819 50.9852L45.545 53.0305L46.2792 53.4386ZM55.335 52.6165L57.7365 54.3126L57.8634 59.8012L63.0908 58.0941L65.48 59.7815L59.4227 68.3581L56.5311 66.3159L57.9243 64.3433L59.1949 62.5963L59.1581 62.5703L56.5037 63.4686L54.8619 62.309L54.8294 59.4948L54.784 59.4811L53.5625 61.2627L52.1693 63.2354L49.2777 61.1932L55.335 52.6165ZM62.6416 66.7052L63.1456 67.1765C63.3648 67.3814 63.5733 67.4805 63.7711 67.4738C63.9758 67.4599 64.2016 67.3356 64.4484 67.1009L69.1441 62.8254L75.4991 68.7672L68.3279 76.4369L65.6874 73.968L70.6047 68.7088L69.3008 67.4897L66.4401 70.1541C65.603 70.9321 64.7917 71.3167 64.0061 71.3077C63.2278 71.3056 62.4149 70.9084 61.5676 70.1161L60.439 69.0609L62.6416 66.7052ZM77.7789 71.1148L82.6182 76.923L80.5554 78.6417L77.9725 75.5417L77.039 76.3194L79.3723 79.1198L77.3671 80.7905L75.0338 77.9901L74.0658 78.7966L76.7447 82.0119L74.6473 83.7594L69.712 77.836L77.7789 71.1148ZM81.9902 88.1958L80.6706 86.1197L77.5564 88.0991L75.6092 85.0355L84.4708 79.4032L86.4179 82.4667L83.4556 84.3495L84.7752 86.4257L87.7375 84.5429L89.6847 87.6064L80.8231 93.2387L78.876 90.1752L81.9902 88.1958ZM91.316 90.4779L92.8307 93.7106L89.9783 95.0472L88.6752 95.6246L88.6943 95.6654L94.25 96.7396L95.5102 99.429L86.0022 103.884L84.4875 100.651L87.3806 99.2958L88.6701 98.7247L88.6582 98.664L83.0555 97.5953L81.808 94.9331L91.316 90.4779ZM96.7279 102.29L99.2807 109.406L96.7534 110.313L95.3909 106.515L94.2472 106.925L95.4781 110.356L93.0214 111.238L91.7906 107.807L90.6046 108.232L92.0177 112.171L89.4481 113.093L86.8446 105.836L96.7279 102.29ZM101.397 115.924L103.784 124.197L101.161 124.954L99.7676 120.126L98.7155 120.429L99.3434 122.605C99.6539 123.681 99.6034 124.607 99.192 125.381C98.7901 126.153 98.104 126.679 97.1336 126.959C96.4995 127.141 95.8986 127.169 95.3309 127.041C94.7729 126.911 94.2845 126.625 93.8658 126.184C93.4471 125.743 93.1352 125.167 92.93 124.456L91.3083 118.835L101.397 115.924ZM95.089 122.74C95.1805 123.057 95.3171 123.278 95.4987 123.402C95.6803 123.527 95.8961 123.553 96.1459 123.481C96.3957 123.409 96.5643 123.272 96.6517 123.07C96.7391 122.868 96.737 122.608 96.6455 122.291L96.3004 121.095L94.7439 121.544L95.089 122.74ZM104.59 127.022L105.899 131.718C106.144 132.594 106.197 133.4 106.059 134.134C105.924 134.877 105.611 135.505 105.12 136.015C104.632 136.535 103.993 136.906 103.203 137.126C102.413 137.346 101.675 137.36 100.988 137.168C100.313 136.982 99.727 136.611 99.2291 136.054C98.7313 135.497 98.3614 134.786 98.1197 133.919L97.7772 132.691L95.4509 133.339L94.4758 129.843L104.59 127.022ZM100.713 132.666C100.829 133.08 101.014 133.371 101.268 133.539C101.532 133.704 101.843 133.737 102.199 133.637C102.555 133.538 102.799 133.351 102.93 133.075C103.07 132.798 103.083 132.451 102.967 132.037L102.742 131.228L100.488 131.857L100.713 132.666ZM98.9615 146.023C98.6236 144.945 98.5427 143.917 98.7185 142.94C98.9039 141.959 99.3194 141.111 99.9649 140.396C100.61 139.68 101.439 139.164 102.451 138.847C103.462 138.53 104.437 138.481 105.376 138.7C106.314 138.92 107.134 139.381 107.836 140.083C108.548 140.782 109.073 141.671 109.411 142.749C109.751 143.837 109.829 144.871 109.644 145.851C109.468 146.829 109.057 147.675 108.412 148.391C107.766 149.107 106.938 149.623 105.926 149.94C104.915 150.257 103.94 150.306 103.001 150.086C102.062 149.867 101.237 149.407 100.526 148.708C99.8238 148.006 99.3023 147.111 98.9615 146.023ZM103.545 142.339C102.934 142.531 102.493 142.878 102.221 143.383C101.959 143.884 101.922 144.435 102.111 145.036C102.299 145.638 102.644 146.069 103.145 146.331C103.659 146.6 104.221 146.639 104.832 146.447C105.443 146.256 105.878 145.905 106.137 145.394C106.408 144.89 106.45 144.337 106.262 143.736C106.073 143.135 105.724 142.705 105.213 142.445C104.712 142.183 104.155 142.148 103.545 142.339ZM111.492 149.953L113.628 155.286C114.029 156.289 114.113 157.171 113.879 157.932C113.65 158.703 113.131 159.25 112.323 159.574C111.84 159.767 111.366 159.833 110.9 159.772C110.437 159.72 110.017 159.544 109.638 159.243C109.625 159.776 109.468 160.259 109.168 160.692C108.876 161.121 108.471 161.44 107.951 161.648C107.431 161.856 106.911 161.903 106.391 161.788C105.884 161.678 105.419 161.418 104.995 161.006C104.572 160.594 104.232 160.067 103.975 159.427L101.744 153.857L111.492 149.953ZM105.888 157.546C105.999 157.824 106.15 158.012 106.339 158.108C106.542 158.21 106.764 158.213 107.005 158.116C107.256 158.016 107.414 157.861 107.481 157.651C107.561 157.447 107.545 157.205 107.434 156.927L106.887 155.562L105.341 156.181L105.888 157.546ZM109.492 155.893C109.599 156.162 109.748 156.345 109.937 156.441C110.127 156.538 110.342 156.537 110.584 156.441C110.825 156.344 110.981 156.196 111.051 155.995C111.122 155.794 111.103 155.559 110.995 155.29L110.521 154.107L109.018 154.709L109.492 155.893ZM115.586 159.957L119.39 166.49L117.07 167.841L115.04 164.354L113.99 164.966L115.824 168.116L113.568 169.429L111.734 166.279L110.645 166.913L112.751 170.53L110.392 171.903L106.512 165.241L115.586 159.957ZM119.901 167.254L122.48 169.721L120.303 171.998L119.297 173.007L119.329 173.038L124.898 172.033L127.044 174.086L119.787 181.674L117.207 179.207L119.415 176.898L120.411 175.9L120.378 175.847L114.768 176.874L112.643 174.842L119.901 167.254ZM124.014 166.642L125.369 167.938L125.276 168.036C125.158 168.159 125.101 168.291 125.104 168.432C125.114 168.566 125.181 168.692 125.303 168.81C125.433 168.934 125.562 168.995 125.689 168.992C125.831 168.989 125.96 168.926 126.078 168.803L126.171 168.706L127.537 170.012L127.371 170.185C126.894 170.684 126.38 170.925 125.828 170.909C125.283 170.9 124.714 170.612 124.121 170.046C123.558 169.506 123.252 168.958 123.204 168.4C123.163 167.835 123.378 167.307 123.848 166.816L124.014 166.642ZM131.065 176.86L134.312 178.346L133 181.21L132.38 182.493L132.421 182.512L137.353 179.738L140.054 180.974L135.683 190.521L132.437 189.036L133.767 186.13L134.381 184.861L134.333 184.822L129.368 187.631L126.695 186.407L131.065 176.86ZM145.333 182.764L150.092 183.821C150.98 184.018 151.716 184.35 152.298 184.818C152.891 185.287 153.297 185.859 153.516 186.532C153.745 187.208 153.771 187.946 153.593 188.746C153.415 189.547 153.08 190.205 152.586 190.72C152.105 191.228 151.501 191.57 150.776 191.747C150.05 191.924 149.248 191.915 148.369 191.72L147.125 191.444L146.601 193.802L143.058 193.015L145.333 182.764ZM148.486 188.842C148.906 188.935 149.249 188.909 149.517 188.764C149.787 188.608 149.962 188.35 150.043 187.989C150.123 187.628 150.072 187.325 149.891 187.08C149.712 186.825 149.413 186.651 148.993 186.558L148.173 186.376L147.666 188.66L148.486 188.842ZM155.946 185.053L163.447 186L163.111 188.663L159.107 188.159L158.955 189.364L162.572 189.82L162.245 192.41L158.629 191.953L158.471 193.204L162.623 193.727L162.282 196.436L154.632 195.471L155.946 185.053ZM169.89 197.14C168.792 197.087 167.834 196.811 167.017 196.311C166.2 195.811 165.576 195.136 165.147 194.284C164.727 193.433 164.543 192.473 164.594 191.404C164.645 190.336 164.921 189.398 165.42 188.591C165.929 187.784 166.614 187.171 167.475 186.752C168.336 186.333 169.306 186.149 170.385 186.201C171.384 186.249 172.269 186.476 173.04 186.884C173.822 187.292 174.445 187.857 174.911 188.58C175.388 189.294 175.683 190.124 175.798 191.071L172.247 190.9C172.126 190.494 171.897 190.168 171.558 189.921C171.23 189.665 170.841 189.526 170.392 189.505C169.782 189.476 169.278 189.652 168.88 190.033C168.491 190.415 168.281 190.93 168.25 191.58C168.219 192.219 168.379 192.752 168.729 193.179C169.089 193.597 169.564 193.82 170.153 193.848C170.623 193.871 171.038 193.771 171.399 193.548C171.76 193.325 172.026 193.007 172.196 192.595L175.762 192.766C175.597 193.689 175.238 194.488 174.686 195.162C174.143 195.837 173.457 196.35 172.629 196.7C171.802 197.041 170.889 197.188 169.89 197.14ZM183.983 193.412L181.524 193.462L181.599 197.151L177.969 197.225L177.756 186.727L181.385 186.654L181.457 190.163L183.916 190.113L183.845 186.604L187.474 186.53L187.687 197.028L184.058 197.102L183.983 193.412ZM189.82 186.437L193.379 186.164L193.62 189.305L193.7 190.728L193.744 190.724L196.714 185.908L199.676 185.681L200.48 196.15L196.92 196.423L196.675 193.237L196.597 191.829L196.536 191.819L193.555 196.681L190.624 196.907L189.82 186.437ZM210.94 194.947L203.332 195.882L202.052 185.46L205.655 185.018L206.533 192.164L208.974 191.864L208.096 184.718L211.699 184.275L212.572 191.377L214.016 191.199L214.676 196.574L211.192 197.002L210.94 194.947Z" fill="#2E2E2E"/>
</svg>
